<svg width="30" height="30" viewBox="0 0 30 30" fill="none" xmlns="http://www.w3.org/2000/svg">
<path d="M20.5701 16.064C22.048 14.9076 23.1267 13.3219 23.6561 11.5275C24.1856 9.73308 24.1395 7.81913 23.5243 6.05196C22.9091 4.28478 21.7553 2.75225 20.2235 1.66757C18.6917 0.582886 16.8581 0 14.9776 0C13.0972 0 11.2636 0.582886 9.73176 1.66757C8.19996 2.75225 7.04619 4.28478 6.43097 6.05196C5.81574 7.81913 5.76967 9.73308 6.29914 11.5275C6.82862 13.3219 7.90731 14.9076 9.38516 16.064C6.85284 17.073 4.64329 18.7465 2.99209 20.9061C1.34088 23.0657 0.309915 25.6304 0.00909244 28.3269C-0.0126827 28.5238 0.00474588 28.723 0.0603826 28.9132C0.116019 29.1033 0.208775 29.2807 0.333353 29.4353C0.58495 29.7473 0.950895 29.9472 1.35068 29.9909C1.75047 30.0347 2.15136 29.9187 2.46515 29.6685C2.77894 29.4183 2.97993 29.0543 3.02391 28.6567C3.35491 25.7262 4.75997 23.0197 6.97063 21.0543C9.18129 19.0889 12.0426 18.0024 15.0078 18.0024C17.973 18.0024 20.8343 19.0889 23.045 21.0543C25.2556 23.0197 26.6607 25.7262 26.9917 28.6567C27.0327 29.0251 27.2094 29.3653 27.4878 29.6117C27.7661 29.8581 28.1264 29.9932 28.4991 29.9909H28.6649C29.06 29.9457 29.4212 29.747 29.6697 29.4381C29.9181 29.1293 30.0338 28.7352 29.9914 28.3419C29.6892 25.6378 28.6526 23.0664 26.993 20.9035C25.3333 18.7406 23.113 17.0676 20.5701 16.064ZM14.9776 14.9996C13.7851 14.9996 12.6193 14.6479 11.6278 13.989C10.6362 13.3301 9.86336 12.3936 9.40699 11.2978C8.95062 10.2021 8.83122 8.9964 9.06387 7.83319C9.29653 6.66997 9.87079 5.60149 10.7141 4.76286C11.5573 3.92423 12.6317 3.35311 13.8013 3.12173C14.971 2.89035 16.1833 3.00911 17.2851 3.46297C18.3869 3.91683 19.3286 4.68543 19.9911 5.67155C20.6536 6.65768 21.0073 7.81705 21.0073 9.00305C21.0073 10.5934 20.372 12.1187 19.2412 13.2432C18.1105 14.3678 16.5768 14.9996 14.9776 14.9996Z" fill="black"/>
</svg>
