<svg width="32" height="31" viewBox="0 0 32 31" fill="none" xmlns="http://www.w3.org/2000/svg">
<path d="M31.5507 28.3866C28.205 25.1692 28.3003 19.8152 28.7259 15.193C28.7985 14.4049 28.8022 13.6073 28.7345 12.8085C28.4327 9.25224 26.737 5.94319 23.996 3.56178C21.255 1.18037 17.677 -0.0923789 13.9978 0.00522585C10.3186 0.102831 6.81774 1.56337 4.21516 4.08654C1.61258 6.60971 0.106067 10.0037 0.00539034 13.5707C-0.0952865 17.1376 1.21753 20.6064 3.67389 23.2638C6.13025 25.9212 9.54345 27.5651 13.2117 27.8577C14.1062 27.929 14.9994 27.9186 15.8803 27.8298C20.5571 27.3582 25.9051 27.2695 29.28 30.5414C29.4287 30.6867 29.6055 30.8021 29.8004 30.8808C29.9953 30.9595 30.2043 31 30.4154 31C30.6265 31 30.8355 30.9595 31.0303 30.8808C31.2252 30.8021 31.402 30.6867 31.5507 30.5414C31.8389 30.2524 32 29.8661 32 29.464C32 29.062 31.8389 28.6757 31.5507 28.3866ZM14.4249 24.8365C12.211 24.8365 10.0469 24.2001 8.20618 23.0076C6.36544 21.8152 4.93076 20.1204 4.08356 18.1375C3.23636 16.1546 3.0147 13.9727 3.4466 11.8676C3.87849 9.76258 4.94456 7.82898 6.50997 6.31133C8.07539 4.79368 10.0699 3.76015 12.2412 3.34143C14.4124 2.92271 16.6631 3.13761 18.7084 3.95896C20.7537 4.7803 22.5019 6.1712 23.7318 7.95577C24.9617 9.74034 25.6182 11.8384 25.6182 13.9847C25.6182 16.8628 24.4389 19.623 22.3398 21.6581C20.2406 23.6932 17.3935 24.8365 14.4249 24.8365Z" fill="black"/>
</svg>
